<?xml version="1.0" encoding="UTF-8" standalone="no"?>
<svg width="512" height="512" viewBox="0 0 512 512" fill="none" xmlns="http://www.w3.org/2000/svg">
  <rect width="512" height="512" rx="128" fill="#d12d36"/>
  <path d="M374.612 130C339.42 130 309.612 154.042 295.612 188C281.612 154.042 251.804 130 216.612 130C168.304 130 129.612 168.692 129.612 217C129.612 313.733 216.612 369.225 295.612 417C374.612 369.225 461.612 313.733 461.612 217C461.612 168.692 422.92 130 374.612 130Z" fill="white"/>
  <path d="M177.612 192C154.304 192 135.612 210.692 135.612 234C135.612 257.308 154.304 276 177.612 276C200.92 276 219.612 257.308 219.612 234C219.612 210.692 200.92 192 177.612 192Z" fill="#d12d36"/>
  <path d="M374.612 192C351.304 192 332.612 210.692 332.612 234C332.612 257.308 351.304 276 374.612 276C397.92 276 416.612 257.308 416.612 234C416.612 210.692 397.92 192 374.612 192Z" fill="#d12d36"/>
  <path d="M256 346.5C232.692 346.5 214 365.192 214 388.5C214 411.808 232.692 430.5 256 430.5C279.308 430.5 298 411.808 298 388.5C298 365.192 279.308 346.5 256 346.5Z" fill="#d12d36"/>
</svg>